/* XPM */
static char *_e5b9855de2c491cab6523a963f0d5c11dgu3yWmZHw8PtFY[] = {
/* columns rows colors chars-per-pixel */
"40 40 171 2 ",
"   c #000612",
".  c #000724",
"X  c #000C2B",
"o  c #061A2D",
"O  c #0A1E2D",
"+  c #131727",
"@  c #1E1E26",
"#  c #161F29",
"$  c #181D29",
"%  c #0F262F",
"&  c #06252E",
"*  c #1F2027",
"=  c #1D242A",
"-  c #16242D",
";  c #19332E",
":  c #012032",
">  c #032934",
",  c #002E38",
"<  c #0F2B32",
"1  c #112730",
"2  c #152E31",
"3  c #013337",
"4  c #0E3234",
"5  c #00353A",
"6  c #093539",
"7  c #013A3B",
"8  c #133232",
"9  c #212127",
"0  c #2A2A27",
"q  c #202329",
"w  c #382F25",
"e  c #342F29",
"r  c #362922",
"t  c #23352F",
"y  c #2F352A",
"u  c #313027",
"i  c #3B3425",
"p  c #3E3A27",
"a  c #36342A",
"s  c #3A3A29",
"d  c #363B29",
"f  c #48331E",
"g  c #603F1D",
"h  c #412D21",
"j  c #483521",
"k  c #4D3B22",
"l  c #463522",
"z  c #533B20",
"x  c #7A5309",
"c  c #69471E",
"v  c #734C1D",
"b  c #7E5B1F",
"n  c #4C4526",
"m  c #46412A",
"M  c #544323",
"N  c #574927",
"B  c #5E4822",
"V  c #564729",
"C  c #554C2B",
"Z  c #5C4322",
"A  c #634720",
"S  c #644B22",
"D  c #684F21",
"F  c #605127",
"G  c #765720",
"H  c #7C5F22",
"J  c #71632F",
"K  c #7B682B",
"L  c #7F722F",
"P  c #013F40",
"I  c #62656D",
"U  c #865916",
"Y  c #855F1E",
"T  c #82561C",
"R  c #8F6A1F",
"E  c #8B601C",
"W  c #9C721E",
"Q  c #A7771D",
"!  c #AD7D1E",
"~  c #B17E1D",
"^  c #8A6622",
"/  c #896622",
"(  c #9D7323",
")  c #967223",
"_  c #887731",
"`  c #A67C22",
"'  c #A97D20",
"]  c #AF801F",
"[  c #A5851B",
"{  c #B2811D",
"}  c #BB891F",
"|  c #9D832F",
" . c #9E8631",
".. c #9D8C33",
"X. c #B28320",
"o. c #B68E27",
"O. c #BC8E23",
"+. c #BF9023",
"@. c #B59A2D",
"#. c #A08831",
"$. c #A99031",
"%. c #AF9834",
"&. c #B39934",
"*. c #BE9F33",
"=. c #D7A21C",
"-. c #EBBA1A",
";. c #C89A26",
":. c #C79523",
">. c #D39F22",
",. c #DDA522",
"<. c #DBA827",
"1. c #D2A329",
"2. c #D6A92A",
"3. c #DEB32E",
"4. c #D4B32A",
"5. c #C5A732",
"6. c #CCAA32",
"7. c #C2B138",
"8. c #DEB935",
"9. c #E0A621",
"0. c #E0AF2A",
"q. c #E2AD23",
"w. c #EBB225",
"e. c #E5B42C",
"r. c #E3BC2C",
"t. c #EBB82B",
"y. c #F2BE2B",
"u. c #E2BD35",
"i. c #EBBE30",
"p. c #E1BF38",
"a. c #EEC02A",
"s. c #FBCC2A",
"d. c #F8C528",
"f. c #FDD02B",
"g. c #E1C039",
"h. c #EAC638",
"j. c #EAC033",
"k. c #F3C630",
"l. c #F4CC37",
"z. c #FACD32",
"x. c #F2CB38",
"c. c #F3C23A",
"v. c #FED535",
"b. c #FFDA36",
"n. c #F6D23B",
"m. c #F9D239",
"M. c #FFDA3A",
"N. c #F5DA39",
"B. c #FFE037",
"V. c #FFE43A",
"C. c #FFEA3B",
"Z. c #FFF13B",
"A. c #808172",
"S. c #CFB74F",
"D. c #C0AD5F",
"F. c #E4BD68",
"G. c #F9D34E",
"H. c #FFDF63",
"J. c #FFE36F",
"K. c #FBE077",
"L. c #FFEE72",
"P. c #8C999D",
"I. c #8FA6AA",
"U. c #A1AEB3",
"Y. c #A7B5B4",
"T. c #FFE784",
"R. c #AFBCC1",
"E. c #FFF7C6",
"W. c #FBF5D7",
"Q. c #F8F8F7",
"!. c #FFFFFF",
/* pixels */
"!.!.!.!.!.!.!.!.!.!.!.!.!.!.!.!.!.!.!.!.!.!.!.!.!.!.!.!.!.!.!.!.!.!.!.!.!.!.!.!.",
"!.!.!.!.!.!.!.!.!.!.!.!.!.!.!.!.!.!.!.!.!.!.!.!.!.!.!.!.!.!.!.!.!.!.!.!.!.!.!.!.",
"!.!.!.!.!.!.!.!.!.!.!.!.!.!.!.!.!.!.!.!.!.!.!.!.!.!.!.!.!.!.!.!.!.!.!.!.!.!.!.!.",
"!.!.!.!.!.!.!.!.!.!.!.!.!.!.!.!.!.!.!.!.!.!.!.!.!.!.!.!.!.!.!.!.!.!.!.!.!.!.!.!.",
"!.!.!.!.!.!.!.!.!.!.!.!.!.!.!.!.!.!.!.!.!.!.!.!.!.!.!.!.!.!.!.!.!.!.!.!.!.!.!.!.",
"!.!.!.!.!.!.!.!.!.!.!.!.!.!.!.!.!.!.!.!.!.!.!.!.!.!.!.!.!.!.!.!.!.!.!.!.!.!.!.!.",
"!.!.!.!.!.!.!.!.!.!.!.!.!.!.!.!.!.!.!.!.!.!.!.!.!.!.!.!.!.!.!.!.!.!.!.!.!.!.!.!.",
"!.!.!.!.!.!.!.!.!.!.!.!.!.!.!.!.!.!.!.!.!.!.!.!.!.!.!.!.!.!.!.!.!.!.!.!.!.!.!.!.",
"!.!.!.!.!.!.!.!.!.!.!.!.!.!.!.!.!.!.!.!.!.!.!.!.!.!.!.!.!.!.!.!.!.!.!.!.!.!.!.!.",
"!.!.!.!.!.!.!.!.!.!.!.!.!.!.!.!.!.!.!.!.!.!.!.!.!.!.!.!.!.!.!.!.!.!.!.!.!.!.!.!.",
"!.!.!.!.!.!.!.!.!.!.5 4 z s 3 7 3 6 6 6 6 6 7 7 8 M d 3 !.!.!.!.!.!.!.!.!.!.!.!.",
"!.!.!.!.!.!.!.!.!.!.> a 8.| % P 4 9 = = q = 7 , s 8.| o !.!.!.!.!.!.!.!.!.!.!.!.",
"!.!.!.!.!.!.!.!.!.!.l ( M.... : n Y T Y E b t X a h.e.D !.!.!.!.!.!.!.!.!.!.!.!.",
"!.!.!.!.!.!.!.!.!.!.v 9.b.$.i j ` t.<.<.q.=.b r S g.z.~ h & !.!.!.!.!.!.!.!.!.!.",
"!.!.!.!.!.!.!.!.!.!.A :.l.e.' { 3.M.l.m.v.l.;.! +.x.i.W w & !.!.!.!.!.!.!.!.!.!.",
"!.!.!.!.!.!.!.!.!.!.; D :.a.z.v.v.m.m.f.K.W.H.d.i.t.( i Y.!.!.!.!.!.!.!.!.!.!.!.",
"!.!.!.!.!.!.!.!.!.!.!.!.M o.u.&.p.B.m.s.J.E.D.4.n.) u Y.!.!.!.!.!.!.!.!.!.!.!.!.",
"!.!.!.!.!.!.!.!.!.!.!.!.- / ' @ _ N.l.n.b.r.i J l.V U.!.!.!.!.!.!.!.!.!.!.!.!.!.",
"!.!.!.!.!.!.!.!.!.!.!.!.H 0.5.@ + L l.C.5.n . J v.o.M P.!.!.!.!.!.!.!.!.!.!.!.!.",
"!.!.!.!.!.!.!.!.!.!.!.!.{ s.N...$ a x.Z.| . C 7.b.w.T $ !.!.!.!.!.!.!.!.!.!.!.!.",
"!.!.!.!.!.!.!.!.!.!.!.!.^ 2.v.M.K C l.C.&.m 6.V.j.O.S 1 !.!.!.!.!.!.!.!.!.!.!.!.",
"!.!.!.!.!.!.!.!.!.!.!.!.!.^ ,.>.' o.m.M.n.g.1.>.O.Z 2 !.!.!.!.!.!.!.!.!.!.!.!.!.",
"!.!.!.!.!.!.!.!.!.!.!.!.!.d v A Q 9.2.1.e.y.^ c B ; I.!.!.!.!.!.!.!.!.!.!.!.!.!.",
"!.!.!.!.!.!.!.!.!.!.!.!.!.!.!.& F { X.O.O.R y o % !.!.!.!.!.!.!.!.!.!.!.!.!.!.!.",
"!.!.!.!.!.!.!.!.!.!.!.!.!.!.!.7 < z X.s.*.0 !.!.!.!.!.!.!.!.!.!.!.!.!.!.!.!.!.!.",
"!.!.!.!.!.!.!.!.!.!.!.!.!.!.!.!.!.l X.v.@.  !.!.!.!.!.!.!.!.!.!.!.!.!.!.!.!.!.!.",
"!.!.!.!.!.!.!.!.!.!.!.!.!.!.!.!.!.k X.s.S.I !.!.!.!.!.!.!.!.!.!.!.!.!.!.!.!.!.!.",
"!.!.!.!.!.!.!.!.!.!.!.!.!.!.!.!.!.k X.-.T.Q.L.] # !.!.!.!.!.!.!.!.!.!.!.!.!.!.!.",
"!.!.!.!.!.!.!.!.!.!.!.!.!.!.!.!.!.k X.a.G.G.g.( @ !.!.!.!.!.!.!.!.!.!.!.!.!.!.!.",
"!.!.!.!.!.!.!.!.!.!.!.!.!.!.!.!.!.z } v.r.x T V 8 !.!.!.!.!.!.!.!.!.!.!.!.!.!.!.",
"!.!.!.!.!.!.!.!.!.!.!.!.!.!.!.!.!.k ' k.*.!.!.!.!.!.!.!.!.!.!.!.!.!.!.!.!.!.!.!.",
"!.!.!.!.!.!.!.!.!.!.!.!.!.!.!.!.!.2 f c I !.!.!.!.!.!.!.!.!.!.!.!.!.!.!.!.!.!.!.",
"!.!.!.!.!.!.!.!.!.!.!.!.!.!.!.!.!.!.!.!.!.!.!.!.!.!.!.!.!.!.!.!.!.!.!.!.!.!.!.!.",
"!.!.!.!.!.!.!.!.!.!.!.!.!.!.!.!.!.!.!.!.!.!.!.!.!.!.!.!.!.!.!.!.!.!.!.!.!.!.!.!.",
"!.!.!.!.!.!.!.!.!.!.!.!.!.!.!.!.!.!.!.!.!.!.!.!.!.!.!.!.!.!.!.!.!.!.!.!.!.!.!.!.",
"!.!.!.!.!.!.!.!.!.!.!.!.!.!.!.!.!.!.!.!.!.!.!.!.!.!.!.!.!.!.!.!.!.!.!.!.!.!.!.!.",
"!.!.!.!.!.!.!.!.!.!.!.!.!.!.!.!.!.!.!.!.!.!.!.!.!.!.!.!.!.!.!.!.!.!.!.!.!.!.!.!.",
"!.!.!.!.!.!.!.!.!.!.!.!.!.!.!.!.!.!.!.!.!.!.!.!.!.!.!.!.!.!.!.!.!.!.!.!.!.!.!.!.",
"!.!.!.!.!.!.!.!.!.!.!.!.!.!.!.!.!.!.!.!.!.!.!.!.!.!.!.!.!.!.!.!.!.!.!.!.!.!.!.!.",
"!.!.!.!.!.!.!.!.!.!.!.!.!.!.!.!.!.!.!.!.!.!.!.!.!.!.!.!.!.!.!.!.!.!.!.!.!.!.!.!."
};
