/* XPM */
static char *_273cacd76d5487cb6fe7427851952e1O2WVEywJtYyAqPOU[] = {
/* columns rows colors chars-per-pixel */
"40 40 229 2 ",
"   c #030819",
".  c #041D1D",
"X  c #061A16",
"o  c #111613",
"O  c #32191B",
"+  c #1D301E",
"@  c #372517",
"#  c #262E17",
"$  c #081A28",
"%  c #191A27",
"&  c #331A2B",
"*  c #06262C",
"=  c #17272B",
"-  c #152C34",
";  c #0B3133",
":  c #272927",
">  c #372827",
",  c #28342A",
"<  c #383728",
"1  c #3A3933",
"2  c #333039",
"3  c #4B1217",
"4  c #700A0F",
"5  c #4B321B",
"6  c #513012",
"7  c #581722",
"8  c #721C24",
"9  c #442F29",
"0  c #463829",
"q  c #563926",
"w  c #493A37",
"e  c #46263B",
"r  c #633E24",
"t  c #683E3F",
"y  c #6A3A12",
"u  c #35521C",
"i  c #2F4018",
"p  c #367113",
"a  c #19483D",
"s  c #154A34",
"d  c #364528",
"f  c #3C5525",
"g  c #32483E",
"h  c #34423B",
"j  c #2D4F31",
"k  c #2D6239",
"l  c #41591F",
"z  c #7C4C0C",
"x  c #6E4A14",
"c  c #487716",
"v  c #577B17",
"b  c #4A6E12",
"n  c #484427",
"m  c #594429",
"M  c #4A4335",
"N  c #4E512F",
"B  c #764926",
"V  c #674A34",
"C  c #724D2D",
"Z  c #4A6124",
"A  c #577326",
"S  c #6A662F",
"D  c #363746",
"F  c #273D40",
"G  c #4C1A40",
"H  c #452945",
"J  c #533145",
"K  c #673C46",
"L  c #783353",
"P  c #5C346B",
"I  c #783A67",
"U  c #174745",
"Y  c #14584F",
"T  c #284847",
"R  c #2B5847",
"E  c #2A5A55",
"W  c #30534B",
"Q  c #3A6758",
"!  c #347657",
"~  c #316E4D",
"^  c #3F716F",
"/  c #485A59",
"(  c #5A5656",
")  c #4E4F4F",
"_  c #675945",
"`  c #745B42",
"'  c #73514A",
"]  c #5E644F",
"[  c #665E62",
"{  c #5C6C6B",
"}  c #546D74",
"|  c #676468",
" . c #66726B",
".. c #637979",
"X. c #757679",
"o. c #7B6D77",
"O. c #6E7450",
"+. c #B1171E",
"@. c #8E381A",
"#. c #9A1720",
"$. c #C83E0F",
"%. c #C00F22",
"&. c #8B4F09",
"*. c #9D5715",
"=. c #975309",
"-. c #B05A15",
";. c #B8681F",
":. c #B77008",
">. c #834D23",
",. c #985924",
"<. c #8F4F34",
"1. c #A35E23",
"2. c #94632B",
"3. c #9F683C",
"4. c #AB6626",
"5. c #B06E37",
"6. c #D96D00",
"7. c #CB7B05",
"8. c #D77C01",
"9. c #CA6D16",
"0. c #D2721D",
"q. c #EF7301",
"w. c #D77C34",
"e. c #C47128",
"r. c #803C70",
"t. c #8D3B68",
"y. c #885A48",
"u. c #925F42",
"i. c #B87B4B",
"p. c #AB6D4B",
"a. c #85426B",
"s. c #964878",
"d. c #877E74",
"f. c #8C684B",
"g. c #C67D48",
"h. c #37A119",
"j. c #3C9110",
"k. c #4A890E",
"l. c #4F970C",
"z. c #53950D",
"x. c #579B0C",
"c. c #4B8611",
"v. c #548817",
"b. c #589812",
"n. c #648D1F",
"m. c #689B1A",
"M. c #638F0E",
"N. c #5DA412",
"B. c #52A412",
"V. c #62A719",
"C. c #66B119",
"Z. c #73B91B",
"A. c #5D8723",
"S. c #78B821",
"D. c #70A521",
"F. c #7AC91A",
"G. c #339B5B",
"H. c #379568",
"J. c #2E8766",
"K. c #37AC6F",
"L. c #5C8844",
"P. c #719146",
"I. c #589F62",
"U. c #4DB06C",
"Y. c #67A763",
"T. c #7BB153",
"R. c #3BC46E",
"E. c #3ED173",
"W. c #43DB78",
"Q. c #40C879",
"!. c #40E173",
"~. c #9B8608",
"^. c #A28F03",
"/. c #AC912D",
"(. c #B3A337",
"). c #8C8530",
"_. c #FF8200",
"`. c #F68701",
"'. c #F68C35",
"]. c #C9AB2E",
"[. c #CD8B04",
"{. c #82CC1E",
"}. c #85CD20",
"|. c #83C322",
" X c #87D020",
".X c #B78658",
"XX c #A79D73",
"oX c #8B8E7A",
"OX c #CC8241",
"+X c #D38B54",
"@X c #EA9957",
"#X c #F39C57",
"$X c #FDA458",
"%X c #FFB05D",
"&X c #FFBB79",
"*X c #EFA76D",
"=X c #EF9C6A",
"-X c #B7CC54",
";X c #CED64E",
":X c #787D82",
">X c #677986",
",X c #994787",
"<X c #8C4183",
"1X c #A64B8A",
"2X c #B24883",
"3X c #B95390",
"4X c #B04C96",
"5X c #A57B90",
"6X c #DC5CA9",
"7X c #E359A9",
"8X c #E85FB5",
"9X c #F25FAF",
"0X c #ED62B4",
"qX c #F865BB",
"wX c #CF4F9B",
"eX c #FC68C4",
"rX c #FF70D2",
"tX c #778D8C",
"yX c #79AB9B",
"uX c #43CA84",
"iX c #948282",
"pX c #849391",
"aX c #8A838E",
"sX c #A88D89",
"dX c #8295A6",
"fX c #DACFBE",
"gX c #D0DDDB",
"hX c #FFFFFF",
"jX c #EFFFFF",
/* pixels */
"hXhXhXhXhXhXhXhXhXhXhXhXhXhXhXhXhXhXhXhXhXhXhXhXhXhXhXhXhXhXhXhXhXhXhXhXhXhXhXhX",
"hXhXhXhXhXhXhXhXhXhXhXhXhXhXhXhXhXhXhXhXhXhXhXhXhXhXhXhXhXhXhXhXhXhXhXhXhXhXhXhX",
"hXhXhXhXhXhXhXhXhXhXhXhXhXhXhXhXhXhXX.  %   aXhXhXhXhXhXhXhXhXhXhXhXhXhXhXhXhXhX",
"hXhXhXhXhXhXhXhXhXhXhXhXhXhXhX} * s u f Z Z Z j $ >XhXhXhXhXhXhXhXhXhXhXhXhXhXhX",
"hXhXhXhXhXhXhXhXhXhXhXhXjX} ; - @ b x.z.m.{.|.A.< 2 h tXhXhXhXhXhXhXhXhXhXhXhXhX",
"hXhXhXhXhXhXhXhXhXhXhXhXQ . * r :.8.^.x.C.}. XS.n.c Z T >XhXhXhXhXhXhXhXhXhXhXhX",
"hXhXhXhXhXhXhXhXhXhXE * w H = &.`._.7.v.h.V.S.|.{.F.v.n D ; } hXhXhXhXhXhXhXhXhX",
"hXhXhXhXhXhXhXhXhXhXT : 2X4Xe x 8.q.7.M.j.b.C.S.{.{.n., % % ( hXhXhXhXhXhXhXhXhX",
"hXhXhXhXhXhXhXhXhXhX( t.0XeX1XK z 6._.[.^.~.m.B.C.Z.v., : b v l / hXhXhXhXhXhXhX",
"hXhXhXhXhXhXhXhXhXg L 0XeXeXeX,X2 &.6.6.q.q.^.c p k.c d u N.{.m.O.hXhXhXhXhXhXhX",
"hXhXhXhXhXhXhXhXhXg L 8XeXqXqX0X3Xt + @ $._._.=.# p b.v.c.b.Z.|.D.l :XhXhXhXhXhX",
"hXhXhXhXhXhXhXhXhXE e r.s.,X6XrXeX1XP P <.=.=.,.C N p B.x.b.b.Z.{.A | hXhXhXhXhX",
"hXhXhXhXhXhXhXhXhXhXW o o w 3X0X6X7XqXqXa.$ . f.=Xy.# p x.l.k.N.S.A | hXhXhXhXhX",
"hXhXhXhXhXhXhXhXhXhXhX) y >.K H & J s.0XI : ` *X*X' % = c x.z.N.}.A | hXhXhXhXhX",
"hXhXhXhXhXhXhXhXhXhXhX) ,.5.5 F / , K 6Xr.w .X&X@XC % % i c z.N.v.f X.hXhXhXhXhX",
"hXhXhXhXhXhXhXhXhXhXT : +Xi.0 tXgX{ J wXI w .X$Xe.q = % : < c c ] hXhXhXhXhXhXhX",
"hXhXhXhXhXhXhXhXhXT w .X&Xp.& yXjX{ e 7X<X= 2.'.0.@ { hXhX. d i / hXhXhXhXhXhXhX",
"hXhXhXhXhXhXhXhXhXT M i.*Xg.' sXfXd.K 1XI q *.9.4.C & o.hXhXhXhXhXhXhXhXhXhXhXhX",
"hXhXhXhXhXhXhXhXhXE ; < *.w.@X+XOX@Xp.H m ;.0.z 0 1Xs.5XhXhXhXhXhXhXhXhXhXhXhXhX",
"hXhXhXhXhXhXhXhXhXT T ' B C u.;.9.'.OXB *.0.*.@ % I t.5XhXhXhXhXhXhXhXhXhXhXhXhX",
"hXhXhXhXhXhXhXhXhX2 <.=Xy.$ $ m 1.-.*.4.;.,.1 - : : . ..hXhXhXhXhXhXhXhXhXhXhXhX",
"hXhXhXhXhXhXhXhXhXD B OXB - Y k 9 5 5 q q 0 E J.! +  .hXhXhXhXhXhXhXhXhXhXhXhXhX",
"hXhXhXhXhXhXhXhXhXhXS y m ! K.H.a U - =   ; ! uXK.k X.hXhXhXhXhXhXhXhXhXhXhXhXhX",
"hXhXhXhXhXhXhXhXhXhX/ : R K.!.R.H.H.! 2 O : ! uXE.k  .hXhXhXhXhXhXhXhXhXhXhXhXhX",
"hXhXhXhXhXhXhXhXhXhXhX) % Y H.W.E.! d C B r 1 G.!.!   } hXhXhXhXhXhXhXhXhXhXhXhX",
"hXhXhXhXhXhXhXhXhXhXhX( 6 m Q K.R.j O >.4.>.O a G.A.0 Y.hXhXhXhXhXhXhXhXhXhXhXhX",
"hXhXhXhXhXhXhXhXhXhXhX( (.].m Y J.U @ B 2.B 9 $ - (.].XXhXhXhXhXhXhXhXhXhXhXhXhX",
"hXhXhXhXhXhXhXhXhXhXhX( L.-X(.S R _ 3.g.OX3.< 5 /.-XP.oXhXhXhXhXhXhXhXhXhXhXhXhX",
"hXhXhXhXhXhXhXhXhXhXhX{ U Y.;X).> p.$X@X$Xg.9 S ;X|.yXhXhXhXhXhXhXhXhXhXhXhXhXhX",
"hXhXhXhXhXhXhXhXhXhXhXhX/ k I.~ > 5.$X@X#Xg.w R I.R X.hXhXhXhXhXhXhXhXhXhXhXhXhX",
"hXhXhXhXhXhXhXhXhXhXhXhXhXpXE a , m i.#X%X+Xq - U tXhXhXhXhXhXhXhXhXhXhXhXhXhXhX",
"hXhXhXhXhXhXhXhXhXhXhXhXhXhX[ O : % w g.#Xi.w   :XhXhXhXhXhXhXhXhXhXhXhXhXhXhXhX",
"hXhXhXhXhXhXhXhXhXhXhXhXhXhX[ 4 +.& $ 2 M M :   d.hXhXhXhXhXhXhXhXhXhXhXhXhXhXhX",
"hXhXhXhXhXhXhXhXhXhXhXhXhXhX{ 3 +.@.x x q 7 8 3 d.hXhXhXhXhXhXhXhXhXhXhXhXhXhXhX",
"hXhXhXhXhXhXhXhXhXhXhXhXhXhXhX} O -.q.q.$.%.%.4 5XhXhXhXhXhXhXhXhXhXhXhXhXhXhXhX",
"hXhXhXhXhXhXhXhXhXhXhXhXhXhXhXhXI.6 *.*.@.8 4 sXjXhXhXhXhXhXhXhXhXhXhXhXhXhXhXhX",
"hXhXhXhXhXhXhXhXhXhXhXhXhXhXhXhXhX..  $ * X pXhXhXhXhXhXhXhXhXhXhXhXhXhXhXhXhXhX",
"hXhXhXhXhXhXhXhXhXhXhXhXhXhXhXhXhXhXhXhXhXhXhXhXhXhXhXhXhXhXhXhXhXhXhXhXhXhXhXhX",
"hXhXhXhXhXhXhXhXhXhXhXhXhXhXhXhXhXhXhXhXhXhXhXhXhXhXhXhXhXhXhXhXhXhXhXhXhXhXhXhX",
"hXhXhXhXhXhXhXhXhXhXhXhXhXhXhXhXhXhXhXhXhXhXhXhXhXhXhXhXhXhXhXhXhXhXhXhXhXhXhXhX"
};
