/* XPM */
static char *_eb2b9b618b94450c227c59386f46e10kS5DkSyeJiFjdXBQ[] = {
/* columns rows colors chars-per-pixel */
"40 40 197 2 ",
"   c gray6",
".  c #12171D",
"X  c #2A151D",
"o  c #162419",
"O  c #0E2115",
"+  c #36301C",
"@  c #1A1F2B",
"#  c #271D24",
"$  c #311E34",
"%  c #0E2229",
"&  c #192528",
"*  c #153134",
"=  c #242125",
"-  c #2A2727",
";  c #3C2723",
":  c #36352C",
">  c #2E2832",
",  c #383A34",
"<  c #5D121A",
"1  c #451312",
"2  c #442C0D",
"3  c #512B1C",
"4  c #5D3110",
"5  c #6D3D05",
"6  c #67381E",
"7  c #671222",
"8  c #462D25",
"9  c #463224",
"0  c #4C3523",
"q  c #4D362C",
"w  c #4E392F",
"e  c #493932",
"r  c #523B31",
"t  c #562D30",
"y  c #6F3A3E",
"u  c #35581A",
"i  c #366616",
"p  c #164139",
"a  c #1E5A3E",
"s  c #29463D",
"d  c #274538",
"f  c #42551B",
"g  c #784B19",
"h  c #436018",
"j  c #5B4126",
"k  c #544238",
"l  c #5A5D33",
"z  c #744B25",
"x  c #7E492A",
"c  c #725525",
"v  c #6B4E34",
"b  c #4B6431",
"n  c #7B7132",
"m  c #3F2F42",
"M  c #543944",
"N  c #452D5D",
"B  c #653659",
"V  c #793C69",
"C  c #184B44",
"Z  c #264A41",
"A  c #315F4C",
"S  c #365245",
"D  c #2F5848",
"F  c #05605B",
"G  c #2A6351",
"H  c #2D7553",
"J  c #0B6960",
"K  c #237962",
"L  c #535258",
"P  c #654B46",
"I  c #704F46",
"U  c #4F7F4D",
"Y  c #4C7551",
"T  c #5A5C67",
"R  c #5E626C",
"E  c #68696A",
"W  c #6C7876",
"Q  c #69786C",
"!  c #6A765C",
"~  c #AA1C17",
"^  c #801F24",
"/  c #B81820",
"(  c #BD2830",
")  c #C1261C",
"_  c #91541D",
"`  c #BC5A05",
"'  c #A35611",
"]  c #A45E1F",
"[  c #A54310",
"{  c #9F6003",
"}  c #B9651C",
"|  c #A36305",
" . c #87472D",
".. c #905723",
"X. c #905A39",
"o. c #885727",
"O. c #A45B22",
"+. c #966231",
"@. c #B96723",
"#. c #B76F33",
"$. c #A16836",
"%. c #C25A03",
"&. c #E66705",
"*. c #E87A26",
"=. c #CA6613",
"-. c #986A44",
";. c #8B6941",
":. c #A96E42",
">. c #B1734E",
",. c #AC7552",
"<. c #A27152",
"1. c #8F4671",
"2. c #488B0F",
"3. c #539A0E",
"4. c #558813",
"5. c #469412",
"6. c #549411",
"7. c #7A9D07",
"8. c #5DA916",
"9. c #5EB11F",
"0. c #6EB11B",
"q. c #79BB1E",
"w. c #6AA719",
"e. c #549522",
"r. c #6DBB22",
"t. c #71B422",
"y. c #30804B",
"u. c #2D9D5E",
"i. c #278168",
"p. c #3B956A",
"a. c #36996A",
"s. c #249274",
"d. c #328E68",
"f. c #37A36C",
"g. c #3AB569",
"h. c #3BA672",
"j. c #3CBA73",
"k. c #4D8753",
"l. c #75A456",
"z. c #76B965",
"x. c #3FCA72",
"c. c #30D977",
"v. c #2EE87A",
"b. c #71C55C",
"n. c #40DC71",
"m. c #40D373",
"M. c #41E476",
"N. c #B78904",
"B. c #A2A50F",
"V. c #DC8C01",
"C. c #E59204",
"Z. c #DA853A",
"A. c #D5B435",
"S. c #FFD737",
"D. c #FFE43C",
"F. c #8EB658",
"G. c #98B351",
"H. c #BD8361",
"J. c #82BF64",
"K. c #CA8348",
"L. c #D98949",
"P. c #CE8C5E",
"I. c #D08B58",
"U. c #F0914A",
"Y. c #E99351",
"T. c #F09C56",
"R. c #E58D45",
"E. c #D69161",
"W. c #E89C68",
"Q. c #F9A76C",
"!. c #F9AE72",
"~. c #BECC50",
"^. c #B6C44F",
"/. c #87F162",
"(. c #DAE252",
"). c #FEE841",
"_. c #FFF944",
"`. c #A84A87",
"'. c #A94C90",
"]. c #BA5193",
"[. c #B94C8C",
"{. c #C8559B",
"}. c #D95CAA",
"|. c #F764BB",
" X c #E760AF",
".X c #FF6ECF",
"XX c #FF70D6",
"oX c #8C9082",
"OX c #8B949A",
"+X c #A3A99B",
"@X c #92A3B0",
"#X c #A5AEA6",
"$X c #FFC380",
"%X c #FFD3AC",
"&X c #DDD1C6",
"*X c #FFFDF4",
"=X c #FFFFFF",
/* pixels */
"=X=X=X=X=X=X=X=X=X=X=X=X=X=X=X=X=X=X=X=X=X=X=X=X=X=X=X=X=X=X=X=X=X=X=X=X=X=X=X=X",
"=X=X=X=X=X=X=X=X=X=X=X=X=X=X=X=X=X=X=X=X=X=X=X=X=X=X=X=X=X=X=X=X=X=X=X=X=X=X=X=X",
"=X=X=X=X=X=X=X=X=X=X=X=X=X=X=X=X=X=X=X=X=X=X=X=X=X=X=X=X=X=X=X=X=X=X=X=X=X=X=X=X",
"=X=X=X=X=X=X=X=X=X=X=X=X=X=X=X=X=X=X=X=X=X=X=X=X=X=X=X=X=X=X=X=X=X=X=X=X=X=X=X=X",
"=X=X=X=X=X=X=X=X=X=X=X=X=X=X=X=X=X=XL T R T L =X=X=X=X=X=X=X=X=X=X=X=X=X=X=X=X=X",
"=X=X=X=X=X=X=X=X=X=X=X=X=X=X=X=X=XQ f u f f f W =X=X=X=X=X=X=X=X=X=X=X=X=X=X=X=X",
"=X=X=X=X=X=X=X=X=X=X=X=X=X=X=X=XE i 3.6.t.r.9.i - =X=X=X=X=X=X=X=X=X=X=X=X=X=X=X",
"=X=X=X=X=X=X=X=X=X=X=X=X=X=X=XQ i 2.3.0.B.r.q.r.e.4.+X=X=X=X=X=X=X=X=X=X=X=X=X=X",
"=X=X=X=X=X=X=X=X=X=X=X=X=X=XOX9 B.7.5.8.r.r.9.B.B.4.i ! =X=X=X=X=X=X=X=X=X=X=X=X",
"=X=X=X=X=X=X=X=X=X=X=X=X=XE @ 9 &.N.5.2.w.q.5.N.&.8 u 4.+ # R =X=X=X=X=X=X=X=X=X",
"=X=X=X=X=X=X=X=X=XL ,.v W `.B O 2 { V.V.C.C.V.{ 2 . i 3.- I ,.: =X=X=X=X=X=X=X=X",
"=X=X=X=X=X=X=X=X=XI !.-.$  X{.M N  .` %.` ` ` x N B l i o <.Q.v =X=X=X=X=X=X=X=X",
"=X=X=X=X=X=X=X=X=XP W.;.> {..X X|.V . - - - o 1.|.|.1.% . <.E.P =X=X=X=X=X=X=X=X",
"=X=X=X=X=X=X=X=X=Xk #.L.,.P `.XX.X}.`.`.'.'.`.}..XXXV o <.Y.#.k =X=X=X=X=X=X=X=X",
"=X=X=X=X=X=X=X=X=Xq ' Z.,.k V ].`.[.{.{.{.{.{.[.`.].1.P H.Z.' 9 =X=X=X=X=X=X=X=X",
"=X=X=X=X=X=X=X=X=Xr } g N }.1.= - # - > > > # - # & 1.}.m g } 0 =X=X=X=X=X=X=X=X",
"=X=X=X=X=X=X=X=X=X=Xj g x V y c oX#X+Xz 4 c +X#XJ.y y V z g 6 =X=X=X=X=X=X=X=X=X",
"=X=X=X=X=X=X=X=X=X=X=Xv ] 2 5 L.*X=X&XL.=.L.&X*X*XL.g 2 ] z =X=X=X=X=X=X=X=X=X=X",
"=X=X=X=X=X=X=X=X=X=X=X=X0 ] %.K.*X@Xe I.Q.I.k @X*XK.` _ 9 =X=X=X=X=X=X=X=X=X=X=X",
"=X=X=X=X=X=X=X=X=X=X=X=XX 6 ' Z.%XE   P.$XP.  E %X*._ 6 X =X=X=X=X=X=X=X=X=X=X=X",
"=X=X=X=X=X=X=X=X=X=X=XD d * j @.U.X.k E.!.E.k +.U.@.j * d p =X=X=X=X=X=X=X=X=X=X",
"=X=X=X=X=X=X=X=X=X=X=XH m.p.d 3 @.R.W.W.!.!.W.R.@.3 Z a.x.y.=X=X=X=X=X=X=X=X=X=X",
"=X=X=X=X=X=X=X=X=X=X=Xb u.h.K s 4  .,.L.U.L.>. .6 s K h.u.b v =X=X=X=X=X=X=X=X=X",
"=X=X=X=X=X=X=X=X=X=Xo.6 > H h.p.s % : _ } _ - % d d.h.H - 6 o.8 =X=X=X=X=X=X=X=X",
"=X=X=X=X=X=X=X=X=X; z ..z , G f.x.f.G ; 1 + A f.g.a.G , z ..c 8 =X=X=X=X=X=X=X=X",
"=X=X=X=X=X=X=X=X=X8 +.+.0 X Z f.x.x.g.H a H g.M.M.h.s X 0 +.+.q =X=X=X=X=X=X=X=X",
"=X=X=X=X=X=X=X=X=Xr L.-.= = A p.i.g.n.M.M.n.x.n.x.h.D = & -.L.P =X=X=X=X=X=X=X=X",
"=X=X=X=X=X=X=X=X=Xw K.T.$.; C s.i.a.j.c.v.c.j.a.s.s.p ; :.T.K.q =X=X=X=X=X=X=X=X",
"=X=X=X=X=X=X=X=X=Xq L.Y.+.L U F.F.Y G b./.b.G Y F.F.Y S -.U.L.9 =X=X=X=X=X=X=X=X",
"=X=X=X=X=X=X=X=X=Xe L.X.* K F.D.D.n : A._.A.: n ).).F.K * X.L.9 =X=X=X=X=X=X=X=X",
"=X=X=X=X=X=X=X=X=X=X=XP % p k.J.z.G.A.S.D.S.A.G.z.J.k.p & q =X=X=X=X=X=X=X=X=X=X",
"=X=X=X=X=X=X=X=X=X=X=X=X; < , F F l.(.~.^.^.(.l.F J , < e =X=X=X=X=X=X=X=X=X=X=X",
"=X=X=X=X=X=X=X=X=X=X=X=X=X/ 7 - # A a.p.p.p.p.A = & 7 ( =X=X=X=X=X=X=X=X=X=X=X=X",
"=X=X=X=X=X=X=X=X=X=X=X=X=X=X[ %.~ t C Z Z s C t ~ %.O.=X=X=X=X=X=X=X=X=X=X=X=X=X",
"=X=X=X=X=X=X=X=X=X=X=X=X=X=X=X&.) 7 =X=X=X=X=X7 ) *.=X=X=X=X=X=X=X=X=X=X=X=X=X=X",
"=X=X=X=X=X=X=X=X=X=X=X=X=X=X=X=X=X=X=X=X=X=X=X=X=X=X=X=X=X=X=X=X=X=X=X=X=X=X=X=X",
"=X=X=X=X=X=X=X=X=X=X=X=X=X=X=X=X=X=X=X=X=X=X=X=X=X=X=X=X=X=X=X=X=X=X=X=X=X=X=X=X",
"=X=X=X=X=X=X=X=X=X=X=X=X=X=X=X=X=X=X=X=X=X=X=X=X=X=X=X=X=X=X=X=X=X=X=X=X=X=X=X=X",
"=X=X=X=X=X=X=X=X=X=X=X=X=X=X=X=X=X=X=X=X=X=X=X=X=X=X=X=X=X=X=X=X=X=X=X=X=X=X=X=X",
"=X=X=X=X=X=X=X=X=X=X=X=X=X=X=X=X=X=X=X=X=X=X=X=X=X=X=X=X=X=X=X=X=X=X=X=X=X=X=X=X"
};
