/* XPM */
static char *_125947791b94c38ac6c14661d144f33wXApWeWtBvRkZt9g[] = {
/* columns rows colors chars-per-pixel */
"40 40 225 2 ",
"   c #0C1618",
".  c #261C1F",
"X  c #162217",
"o  c #08281E",
"O  c #2A2816",
"+  c #050F22",
"@  c #07172A",
"#  c #191B28",
"$  c #251E26",
"%  c #371D20",
"&  c #04232C",
"*  c #0D2C2C",
"=  c #1B2525",
"-  c #192829",
";  c #172B34",
":  c #073735",
">  c #163538",
",  c #10322C",
"<  c #242B2C",
"1  c #2B2A2A",
"2  c #272626",
"3  c #382B28",
"4  c #26352D",
"5  c #34372C",
"6  c #212D32",
"7  c #36253B",
"8  c #3D2934",
"9  c #273535",
"0  c #373A34",
"q  c #541C1F",
"w  c #53361F",
"e  c #4C2F19",
"r  c #663819",
"t  c #5F1824",
"y  c #781D24",
"u  c #472925",
"i  c #483424",
"p  c #543829",
"a  c #432139",
"s  c #4B3538",
"d  c #562223",
"f  c #6C2D24",
"g  c #3B531D",
"h  c #2C4E19",
"j  c #3F621F",
"k  c #00403F",
"l  c #254825",
"z  c #364722",
"x  c #34513D",
"c  c #3E4B38",
"v  c #434C1C",
"b  c #6C4A14",
"n  c #744716",
"m  c #426517",
"M  c #447C11",
"N  c #597C17",
"B  c #4B422D",
"V  c #594225",
"C  c #475A24",
"Z  c #4A4838",
"A  c #554935",
"S  c #4F5B37",
"D  c #714825",
"F  c #7E4D23",
"G  c #7E563F",
"H  c #6F522E",
"J  c #4B6A26",
"K  c #536A22",
"L  c #5C663C",
"P  c #6A6933",
"I  c #043640",
"U  c #123244",
"Y  c #393045",
"T  c #57374A",
"R  c #482C44",
"E  c #683B55",
"W  c #6B3C55",
"Q  c #723B74",
"!  c #57326B",
"~  c #1B544B",
"^  c #1C4C46",
"/  c #294844",
"(  c #364A4A",
")  c #295645",
"_  c #305543",
"`  c #1C6D5B",
"'  c #216554",
"]  c #2A7459",
"[  c #316C56",
"{  c #484A49",
"}  c #495B48",
"|  c #554550",
" . c #665243",
".. c #755844",
"X. c #795851",
"o. c #7B6142",
"O. c #647B78",
"+. c #48714D",
"@. c #91181C",
"#. c #B3241A",
"$. c #821823",
"%. c #AE1721",
"&. c #C00D21",
"*. c #985602",
"=. c #864A17",
"-. c #984913",
";. c #895219",
":. c #9F5511",
">. c #AD5C1B",
",. c #937F09",
"<. c #BE6504",
"1. c #B6651C",
"2. c #AF7C04",
"3. c #8F5C26",
"4. c #945724",
"5. c #88593B",
"6. c #884D34",
"7. c #A25F2D",
"8. c #936832",
"9. c #AE6323",
"0. c #A46C38",
"q. c #B56E39",
"w. c #BF7A3F",
"e. c #DD6903",
"r. c #C46D1B",
"t. c #D2730E",
"y. c #EE6C02",
"u. c #FB7800",
"i. c #CF7A34",
"p. c #873A66",
"a. c #9C3F6D",
"s. c #912E6C",
"d. c #9F6442",
"f. c #AB7046",
"g. c #934574",
"h. c #994975",
"j. c #8E4474",
"k. c #C67D4F",
"l. c #309715",
"z. c #478B0E",
"x. c #538A0F",
"c. c #52940E",
"v. c #559C0D",
"b. c #568615",
"n. c #469211",
"m. c #559312",
"M. c #569911",
"N. c #4D8B11",
"B. c #669014",
"V. c #54A617",
"C. c #57A30B",
"Z. c #65A817",
"A. c #6EB518",
"S. c #75B71D",
"D. c #699522",
"F. c #608725",
"G. c #7AB921",
"H. c #70B120",
"J. c #7BC71B",
"K. c #7CC021",
"L. c #3E8A5C",
"P. c #228352",
"I. c #38AA5C",
"U. c #348A65",
"Y. c #39946A",
"T. c #3BBB73",
"R. c #3BB06E",
"E. c #4E9656",
"W. c #57915B",
"Q. c #56A163",
"!. c #3EDA72",
"~. c #42DB77",
"^. c #43E47C",
"/. c #849009",
"(. c #AD8707",
"). c #A98F2F",
"_. c #BAAE3B",
"`. c #C88604",
"'. c #F88800",
"]. c #EA8B03",
"[. c #E98430",
"{. c #D6B836",
"}. c #84D01E",
"|. c #84C722",
" X c #89D321",
".X c #E1C73A",
"XX c #B5835A",
"oX c #BBB442",
"OX c #BD8160",
"+X c #88BE62",
"@X c #85A955",
"#X c #CB8347",
"$X c #DD9259",
"%X c #D18C54",
"&X c #E28C49",
"*X c #E79454",
"=X c #F69E56",
"-X c #F79747",
";X c #FDA458",
":X c #FFA95A",
">X c #DC9663",
",X c #CC9262",
"<X c #F7A663",
"1X c #FDB67A",
"2X c #EEB072",
"3X c #B1CC57",
"4X c #CECD47",
"5X c #944485",
"6X c #AD4D8C",
"7X c #B04980",
"8X c #C85698",
"9X c #D95BA6",
"0X c #D45AA8",
"qX c #E95FB6",
"wX c #E960B3",
"eX c #F764BB",
"rX c #FC68C3",
"tX c #F76BCA",
"yX c #41CD81",
"uX c #B1B2AF",
"iX c #CFC3AF",
"pX c #B8CBDA",
"aX c #DEEDED",
"sX c #FFFFFF",
"dX c #C5CFC9",
/* pixels */
"sXsXsXsXsXsXsXsXsXsXsXsXsXsXsXsXsXsXsXsXsXsXsXsXsXsXsXsXsXsXsXsXsXsXsXsXsXsXsXsX",
"sXsXsXsXsXsXsXsXsXsXsXsXsXsXsXsXsXsXsXsXsXsXsXsXsXsXsXsXsXsXsXsXsXsXsXsXsXsXsXsX",
"sXsXsXsXsXsXsXsXsXsXsXsXsXsXsXsXsXsX# # # # sXsXsXsXsXsXsXsXsXsXsXsXsXsXsXsXsXsX",
"sXsXsXsXsXsXsXsXsXsXsXsXsXsXsXU > C C C g g l * I sXsXsXsXsXsXsXsXsXsXsXsXsXsXsX",
"sXsXsXsXsXsXsXsXsXsXsXsXsX/ { 2 C H.|.H.M.c.x.v ; : k sXsXsXsXsXsXsXsXsXsXsXsXsX",
"sXsXsXsXsXsXsXsXsXsXsXsX/ } m b.D.S. XK.C./.(.t.=.4 & * sXsXsXsXsXsXsXsXsXsXsXsX",
"sXsXsXsXsXsXsXsXsXsXU U Y C Z.J. XG.H.V.l./.u.'.r.O 7 R , : sXsXsXsXsXsXsXsXsXsX",
"sXsXsXsXsXsXsXsXsXsX< $ $ m S.|.|.G.Z.z.n.(.u.u.*.3 5X8Xs o sXsXsXsXsXsXsXsXsXsX",
"sXsXsXsXsXsXsXsX4 K b.v $ z Z.A.V.M./.2.(.].u.*.r g.wXeX7XR sXsXsXsXsXsXsXsXsXsX",
"sXsXsXsXsXsXsXsXC S.J.m.l g N.z.M B.`.u.y.e.<.i Q wXeXrXrXa.- sXsXsXsXsXsXsXsXsX",
"sXsXsXsXsXsX( J H.|.A.z.M m.z.l w t.'.y.r O u h.0XeXeXtXeXh.- sXsXsXsXsXsXsXsXsX",
"sXsXsXsXsXsX| D.}.A.M.c.v.n.j  .6.:.*.;.W ! Q wXtXtX6Xj.j.T : sXsXsXsXsXsXsXsXsX",
"sXsXsXsXsXsX{ F.S.M.z.c.m.h 5 k.*X0   Y 0XeXwX9XwX9X .X X * sXsXsXsXsXsXsXsXsXsX",
"sXsXsXsXsXsX| D.J.M.v.m.g o 7 k.1XXXs 7 9X8XE 8 a T 6.n O sXsXsXsXsXsXsXsXsXsXsX",
"sXsXsXsXsXsX( J B.v.x.m 1 @ 3 f.<X2XG 7 9Xh.X } ( 2 7.q.3 sXsXsXsXsXsXsXsXsXsXsX",
"sXsXsXsXsXsXsXsXz m.m 1 2 = 2 =.[.<XP 7 9Xp.0 pXuXs 0.$Xs & sXsXsXsXsXsXsXsXsXsX",
"sXsXsXsXsXsXsXsX, z l ; sXsXX ;.[.#XV Y eXs.; aXpX9 5.1X,XH ; sXsXsXsXsXsXsXsXsX",
"sXsXsXsXsXsXsXsXsXsXsXsXsXa E 5.1.r.n s 6Xp. .iXuX..q.<X,X .@ sXsXsXsXsXsXsXsXsX",
"sXsXsXsXsXsXsXsXsXsXsXsXsXp.8XW e 1.r.4.8 X.*Xk.#X*X&X9.p > : sXsXsXsXsXsXsXsXsX",
"sXsXsXsXsXsXsXsXsXsXsXsXsX| h.R X r r.r.n 0.-Xt.1.d.H D ..{ : sXsXsXsXsXsXsXsXsX",
"sXsXsXsXsXsXsXsXsXsXsXsXsX, = 1 ; 4 D 1.9.9.:.>.;.< + A *Xf.= sXsXsXsXsXsXsXsXsX",
"sXsXsXsXsXsXsXsXsXsXsXsXsXsXX _ U.] c u p i u e c ' : i i.4.# sXsXsXsXsXsXsXsXsX",
"sXsXsXsXsXsXsXsXsXsXsXsXsXsX4 L.yXR.~ + @ > ^ > ] T.U.Z n w sXsXsXsXsXsXsXsXsXsX",
"sXsXsXsXsXsXsXsXsXsXsXsXsXsX4 I.^.Y.( 2 . _ Y.Y.R.!.T.[ < ( sXsXsXsXsXsXsXsXsXsX",
"sXsXsXsXsXsXsXsXsXsXsXsXsX@ , I.!._ i D D B ) I.yX!.] ; # sXsXsXsXsXsXsXsXsXsXsX",
"sXsXsXsXsXsXsXsXsXsXsXsXsXl L E.P.2 p 7.8.d - I.T.[ A b 3 sXsXsXsXsXsXsXsXsXsXsX",
"sXsXsXsXsXsXsXsXsXsXsXsXsX8..XP + - V 3.3.w * U.` ; ).{.B sXsXsXsXsXsXsXsXsXsXsX",
"sXsXsXsXsXsXsXsXsXsXsXsXsXL 3XoX3.1 H i.w.q.d.( S ).3X@X0 sXsXsXsXsXsXsXsXsXsXsX",
"sXsXsXsXsXsXsXsXsXsXsXsXsXsXL.3X_.5 G =X*X;X&Xu H 4X+X' ( sXsXsXsXsXsXsXsXsXsXsX",
"sXsXsXsXsXsXsXsXsXsXsXsXsXsX0 W.E.< 6.=X*X;X*Xp x Q.+.- sXsXsXsXsXsXsXsXsXsXsXsX",
"sXsXsXsXsXsXsXsXsXsXsXsXsXsXsX) ^ < 0.;X:X&X5.3 k ~ O.sXsXsXsXsXsXsXsXsXsXsXsXsX",
"sXsXsXsXsXsXsXsXsXsXsXsXsXsXsXsX# < ..$X$XG = 2 3 2 sXsXsXsXsXsXsXsXsXsXsXsXsXsX",
"sXsXsXsXsXsXsXsXsXsXsXsXsXsXsXsX. X z Z { ; @ $.@.% sXsXsXsXsXsXsXsXsXsXsXsXsXsX",
"sXsXsXsXsXsXsXsXsXsXsXsXsXsXsXsXu t t q r b =.#.y < sXsXsXsXsXsXsXsXsXsXsXsXsXsX",
"sXsXsXsXsXsXsXsXsXsXsXsXsXsXsXsXd %.&.#.e.u.e.r ; sXsXsXsXsXsXsXsXsXsXsXsXsXsXsX",
"sXsXsXsXsXsXsXsXsXsXsXsXsXsXsXsXsXy $.y -.-.;.4 sXsXsXsXsXsXsXsXsXsXsXsXsXsXsXsX",
"sXsXsXsXsXsXsXsXsXsXsXsXsXsXsXsXsXsX* * & @ & sXsXsXsXsXsXsXsXsXsXsXsXsXsXsXsXsX",
"sXsXsXsXsXsXsXsXsXsXsXsXsXsXsXsXsXsXsXsXsXsXsXsXsXsXsXsXsXsXsXsXsXsXsXsXsXsXsXsX",
"sXsXsXsXsXsXsXsXsXsXsXsXsXsXsXsXsXsXsXsXsXsXsXsXsXsXsXsXsXsXsXsXsXsXsXsXsXsXsXsX",
"sXsXsXsXsXsXsXsXsXsXsXsXsXsXsXsXsXsXsXsXsXsXsXsXsXsXsXsXsXsXsXsXsXsXsXsXsXsXsXsX"
};
