/* XPM */
static char *_4eaf2132df2416df58ac4622bab0d7buuY017r4lgWPqeNi[] = {
/* columns rows colors chars-per-pixel */
"40 40 154 2 ",
"   c #020E05",
".  c #0E1910",
"X  c #1C1B14",
"o  c #201B15",
"O  c #39171A",
"+  c #13241B",
"@  c #1D2D25",
"#  c #252725",
"$  c #242D25",
"%  c #282F28",
"&  c #352524",
"*  c #332D2A",
"=  c #3E2F2D",
"-  c #263028",
";  c #293128",
":  c #31342A",
">  c #55372E",
",  c #563C29",
"<  c #593735",
"1  c #5D3C35",
"2  c #6A2D36",
"3  c #653536",
"4  c #693337",
"5  c #673638",
"6  c #683538",
"7  c #653D39",
"8  c #6D3C3A",
"9  c #713C3B",
"0  c #294929",
"q  c #2B502B",
"w  c #345634",
"e  c #4F412E",
"r  c #544631",
"t  c #584932",
"y  c #5F483A",
"u  c #644535",
"i  c #644A35",
"p  c #644339",
"a  c #6D453B",
"s  c #634C3A",
"d  c #6B4D3C",
"f  c #73443C",
"g  c #744E3F",
"h  c #67523C",
"j  c #6C543E",
"k  c #72583F",
"l  c #794D42",
"z  c #6F5740",
"x  c #6E5A40",
"c  c #725B41",
"v  c #7A5D43",
"b  c #7D6245",
"n  c #805544",
"m  c #826647",
"M  c #826846",
"N  c #836748",
"B  c #856B4A",
"V  c #8C6D4B",
"C  c #936F4C",
"Z  c #8D714D",
"A  c #93744D",
"S  c #9A784F",
"D  c #8E7351",
"F  c #8E7D5E",
"G  c #947651",
"H  c #967A52",
"J  c #9A7A51",
"K  c #A07F53",
"L  c #8E7F61",
"P  c #378633",
"I  c #438A3F",
"U  c #3E9D42",
"Y  c #468546",
"T  c #4B8B46",
"R  c #478A48",
"E  c #498D49",
"W  c #449644",
"Q  c #499447",
"!  c #409C43",
"~  c #499648",
"^  c #479B49",
"/  c #489848",
"(  c #44A144",
")  c #45A24A",
"_  c #A38257",
"`  c #A48559",
"'  c #AA8A5E",
"]  c #AC8C5F",
"[  c #AD8C5F",
"{  c #AE8D5F",
"}  c #AC8A5C",
"|  c #B28F5F",
" . c #AB8D61",
".. c #AD8D60",
"X. c #AC8D60",
"o. c #AD8E61",
"O. c #AF8E60",
"+. c #AE8E60",
"@. c #B08E60",
"#. c #B08E60",
"$. c #B29061",
"%. c #B09062",
"&. c #B29163",
"*. c #B19262",
"=. c #B39263",
"-. c #B49262",
";. c #B19264",
":. c #B39364",
">. c #B49364",
",. c #B49465",
"<. c #B59566",
"1. c #B49466",
"2. c #B79566",
"3. c #B79767",
"4. c #B79766",
"5. c #B39363",
"6. c #B89767",
"7. c #B89564",
"8. c #BB9867",
"9. c #B79768",
"0. c #B29668",
"q. c #B89768",
"w. c #B89868",
"e. c #B99969",
"r. c #B99968",
"t. c #BA9969",
"y. c #BB9B6A",
"u. c #BB9B6B",
"i. c #BA9A6A",
"p. c #BC9C6B",
"a. c #BD9D6B",
"s. c #BE9C6A",
"d. c #BF9E6B",
"f. c #BC9C6C",
"g. c #BD9D6C",
"h. c #BC9D6C",
"j. c #BF9F6D",
"k. c #BF9F6E",
"l. c #BD9D6C",
"z. c #BDA06F",
"x. c #BDA678",
"c. c #B7A97F",
"v. c #BBAA7E",
"b. c #C09F6C",
"n. c #C2A16E",
"m. c #C3A16E",
"M. c #C2A26E",
"N. c #C4A36F",
"B. c #C5A36F",
"V. c #C1A06E",
"C. c #BBAE84",
"Z. c #B9B38B",
"A. c #BBB790",
"S. c #BCB992",
/* pixels */
"/ / / / / / / / / / / / / / / / / / / / ~ / / / / / / / / / / / / / / / / / / / ",
"/ / / / / / / / / / / / / / / / / / / / ~ ~ / / / / / / / / / / / / / / / / / / ",
"/ / / / / / / / / / / / / / / / / / T E T T / / / / / / / / / / / / / / / / / / ",
"/ / / W / / / / / / / / / / / ! R 1 p t r u t I ! / / / / / / / / / / / W / / / ",
"/ / / / / / / / / / / / / / ( T u a Z k k Z d y E / / / / / / / / / / / W / / / ",
"/ / / / / / / / / / ~ ~ Q ) T y l ` S j j S ` l p / / ~ / / / / / / / / W / / / ",
"/ / / / / / / / / / / ^ ) T h a H a.Z B B A 8.H f y Q ~ / / / / / / / / W / / / ",
"/ / / / / / / / / / / ) T s f D *.3.` V V ` 3.| D f z ~ ^ / / / / / / / W / / / ",
"/ ~ ~ / / / / / / / ( T p 5 B 5.g.r.' j j  .q.g.,.B 6 u / / / / / / / / W / / / ",
"/ / / / / / / / / ^ Q p 2 d H M.r.%.V b v V >.r.z._ s 2 p / / / / / / / W / / / ",
"/ / / / / / / / ^ Q p 4 d Z ] p.r.<.J G G J <.r.p.] Z d 4 p / / / / / / W / / / ",
"/ / / / / / / / Q p g c V %.a.<.r.r.%.j j %.r.q.0.p.| Z c g p / / / / / W / / / ",
"/ / / / / / / / 7 d A S ] a.` _ g.<.A z z A ;.g.J ' g.] S Z j 7 / / / / ~ / Q / ",
"/ / / / / / / 7 4 V %.r.g.D B V.r.;.A S S A ;.r.n.B D a.r.%.V 4 7 / / / W ^ / / ",
"/ / / / / ~ 7 5 d V %.g.' A _ a.q.r.;.c c ;.r.r.a._ A } g.%.V d 5 7 / / W ~ / ^ ",
"/ / / W ~ p 3 d V X.q.n.D v ` a.r.<.G j j J <.r.g.` v D n.7.] V s 4 p / W / / Q ",
"/ / / P p 4 j Z A >.f. .G J q.r.r.;.A A A A ;.r.r.9.J A { f.>.A Z j 4 p W Q / ^ ",
"/ / / , 4 j j S { q.b.G N  .f.r.r.q.X.b b  .9.q.q.f.{ N D n.<.{ S j j 4 , Q / / ",
"/ / / O 8 c Z S <.p.#.v m { b.r.q.<._ j j _ q.q.r.V.X.b v #.r.q.S Z c 8 O / / Q ",
"/ / / X 9 c N S <.a.K z m K ` ' b.<.A z z A 7.g. .` ` m c K g.<.S N c a X / / ^ ",
"/ / / o a c b A <.p.X.V B A J ' X.' m z s b '  .' S A B B X.p.<.A b c 8 o / / / ",
"/ / / o 8 c K S <.r.g.X._ _ ] { C m h Z B z b Z ' { ` ` #.g.r.7.S K b 8 o / / / ",
"/ / / o 8 b Z V  .r.r.p.g.a.` A m h Z N.N.D z b C ` r.g.r.q.r.X.V A c a o Q / / ",
"/ / Q o 9 j j k C X.r.<.<.` A N h V V. . .V.B z N A ` <.9.q. .A k j j 9 o / / / ",
"/ / / X 5 6 k S S A X._ A A N h Z N.] h d X.n.Z j m H G _ *.A G J c 5 3 X / / / ",
"/ / / . : 8 c S J A J S J m d Z n.,.V 5 3 V ;.n.Z s b H H S H S A c 9 : . / / / ",
"/ / / . : v H S S H J J m h V b.%.A h - - h A %.n.V d b J J S A J H b : . / / / ",
"/ / / . : c J S J J J m i L C.8.%.Z h - - h A %.p.v._ y m J J J J J v ; . / / / ",
"/ / / X p c v J S K m i F Z.v.r.,.A 5 - % 5 A 3.7.c.Z.F i m J J S c k 7 X / / / ",
"/ / / o f x c c J M i L Z.A.v.| S j * - ; % j A | C.S.C.L i N J b j c f o / / / ",
"/ / / o a c z x b s Z c.A.c.z.5.V 3 @ ; - $ 3 V -.h.C.A.c.Z s b j c c 8 o / / / ",
"/ / / o 8 a c a s Z 7.C.C.z.-._ j * - ; ; - * j _ ,.g.C.C.7.G s a c d 9 o / / / ",
"/ / / o 4 5 a p G a.a.x.0.} _ v 1 @ ; ; ; % @ 1 v H ] <.x.a.p.G 7 p 5 9 X / / / ",
"/ / / o 9 8 l B %.| ] | A M b 3 = ; % # # % - = 7 v M A | ] | | M n 5 9 X / / / ",
"/ ~ / X 1 l S Z V V V V b j 7 = @ # ; w w $ # @ = 7 j b C V B V A A f 1 X / / / ",
"/ ~ ~   + r e e e e , e e > & + - 0 q ) ( q 0 $ + & > r e e e e e e r $   / / / ",
"/ / / Y E E E E R E E E E E Q E ~ / ~ ~ / / / Q E Q E E E R R E E E E Q Y / / / ",
"/ / / / / / / / / / / / / / ~ ~ / ~ / / / / / / / / / / / / / / / / / / / / / / ",
"/ / / / / / / / / / / / / / / / / / / / / / / ! / / / / / ^ / / / / / / / ^ ~ / ",
"/ / / / / / / / / / / / / / / / / / / / / / / / / / / / / ~ / / / / / / ~ ~ ~ / "
};
