/* XPM */
static char *_127a3976131473e83104339cf785947HYuvDAsuh1vgxsee[] = {
/* columns rows colors chars-per-pixel */
"40 40 182 2 ",
"   c #1F1E1F",
".  c #1E221E",
"X  c #1B351C",
"o  c #20281F",
"O  c #332819",
"+  c #3B2E19",
"@  c #251D25",
"#  c #1F2424",
"$  c #1D3A23",
"%  c #1E3729",
"&  c #1D3E2B",
"*  c #242326",
"=  c #282427",
"-  c #252A27",
";  c #2B2827",
":  c #262628",
">  c #292528",
",  c #252C28",
"<  c #2A2B29",
"1  c #312C27",
"2  c #342E29",
"3  c #392E2A",
"4  c #253329",
"5  c #2B322B",
"6  c #253B2B",
"7  c #2A3D2C",
"8  c #3E3626",
"9  c #34352A",
"0  c #3B352A",
"q  c #303B2C",
"w  c #3D3A2B",
"e  c #353425",
"r  c #43372C",
"t  c #453B2C",
"y  c #4A3D2C",
"u  c #503F2D",
"i  c #433C30",
"p  c #174427",
"a  c #125220",
"s  c #264627",
"d  c #274827",
"f  c #24452C",
"g  c #29442C",
"h  c #254B2E",
"j  c #294C2D",
"k  c #30452F",
"l  c #26532E",
"z  c #28562F",
"x  c #275A2F",
"c  c #28592F",
"v  c #254630",
"b  c #204F33",
"n  c #2F4C30",
"m  c #3F4631",
"M  c #3D4D32",
"N  c #265631",
"B  c #295631",
"V  c #265B32",
"C  c #285A32",
"Z  c #245A38",
"A  c #355235",
"S  c #345C34",
"D  c #385D37",
"F  c #37593B",
"G  c #3A5839",
"H  c #34553A",
"J  c #1A6326",
"K  c #266136",
"L  c #286136",
"P  c #27633C",
"I  c #28643C",
"U  c #2A693D",
"Y  c #326831",
"T  c #3A6238",
"R  c #3B6B3B",
"E  c #35653B",
"W  c #2D743C",
"Q  c #367337",
"!  c #34733F",
"~  c #3B723B",
"^  c #3C7E3C",
"/  c #41402D",
"(  c #4C422D",
")  c #5C4821",
"_  c #51452E",
"`  c #55492E",
"'  c #594A2F",
"]  c #444C31",
"[  c #534631",
"{  c #554932",
"}  c #5B4C31",
"|  c #455B3B",
" . c #535136",
".. c #5A593C",
"X. c #5D553A",
"o. c #665025",
"O. c #614E30",
"+. c #635333",
"@. c #6B5634",
"#. c #6C5935",
"$. c #625F3A",
"%. c #6C5C3A",
"&. c #735E36",
"*. c #715E3A",
"=. c #735434",
"-. c #406437",
";. c #766136",
":. c #7A6333",
">. c #766239",
",. c #7B653B",
"<. c #7F693B",
"1. c #286740",
"2. c #286941",
"3. c #336F40",
"4. c #307441",
"5. c #367940",
"6. c #387F42",
"7. c #3D7242",
"8. c #4A7C4A",
"9. c #437243",
"0. c #57754E",
"q. c #5D764E",
"w. c #506750",
"e. c #556F54",
"r. c #4B7A51",
"t. c #5C7E5D",
"y. c #616048",
"u. c #766841",
"i. c #7C6943",
"p. c #647457",
"a. c #657852",
"s. c #697659",
"d. c #6D7858",
"f. c #846C3D",
"g. c #886F3F",
"h. c #85633B",
"j. c #8C7341",
"k. c #937A49",
"l. c #927A45",
"z. c #379037",
"x. c #3E943E",
"c. c #3D8B44",
"v. c #358144",
"b. c #448C43",
"n. c #428D44",
"m. c #498449",
"M. c #448E49",
"N. c #428442",
"B. c #419541",
"V. c #469346",
"C. c #449545",
"Z. c #439943",
"A. c #469946",
"S. c #469D46",
"D. c #459946",
"F. c #499B47",
"G. c #4A964A",
"H. c #469849",
"J. c #489848",
"K. c #499949",
"L. c #4A994A",
"P. c #4B9A4B",
"I. c #4A9D4A",
"U. c #4F9D4F",
"Y. c #499849",
"T. c #568650",
"R. c #5B885D",
"E. c #529655",
"W. c #509E50",
"Q. c #47A24B",
"!. c #4BA34B",
"~. c #52A352",
"^. c #5EA45E",
"/. c #5AA35A",
"(. c #5FA95F",
"). c #62A762",
"_. c #62A862",
"`. c #9C824D",
"'. c #978053",
"]. c #A48A55",
"[. c #AF945C",
"{. c #B3965E",
/* pixels */
"J.J.J.J.J.J.B.B.Z.Z.Z.b.~ j d n j d d d d d d j j z R Q x.S.Z.Z.Z.B.J.J.J.J.J.J.",
"J.J.J.J.J.~.S.b.T D T g s l z Z I I I I I I I I V l j g g T D R C.F.W.J.J.J.J.J.",
"J.P.J.U.J.!.D 5 7 6 7 j B I 2.2.I V V C C C V U 2.1.I B g 6 7 7 7 R /.J.J.J.J.J.",
").).).).).G , g N B C I I 2.U Z c z c C c B B B I 1.2.U I V z j 7 < m.(.(.^.).^.",
"U.U.~.~.9.> g C I U 2.2.I V B B C I I 1.I I Z c z C I I U 2.U I z 4 5 m.~.~.J.^.",
"x.B.x.z . 4 c K 2.2.U V C z z C I 2.I I I 2.1.U C l z c K 1.2.I L B - o Y x.z./.",
"F.L.A < 4 z L 1.2.2.V z z C I U 2.I C C B V I 2.I V C z c Z 1.2.I L j 4 5 T S.^.",
"I.R @ f C L 2.2.1.V C B C I 2.1.C z V I I V C V 2.2.I C c x I 1.2.2.V c 6 : ^ (.",
"b.< g c C I 2.2.I z z z I 2.2.V z I 2.2.2.2.C z I 2.2.L z z C I 1.1.I V x 4 7 ^.",
"A 4 c c I 2.2.I C z z z I 2.2.I z V 2.2.2.1.C z I 2.2.Z z c z C U 1.1.I x x . 8.",
"> l c C 2.2.2.V c B C z V 2.2.I z z V I I V z C 2.2.1.C z z z z I 1.1.U C C $ X ",
"< j c L 2.2.2.V z z C z C V 2.2.C z z z z B C I 2.U C B C C z z I 1.1.1.C x $ s ",
"< j C V 2.2.I B z C c C z z V 2.2.U C B C V I 2.2.V z z B B c C C U 2.I x z $ s ",
"< v C V 2.2.I C z z B z z z B I 2.2.1.I I 2.2.2.I z z z c c C z Z 1.2.U C z $ s ",
"< j C C 2.2.2.C z z z C C z z C I 2.2.2.2.2.I I C z z C B C z z Z 1.1.I C z $ s ",
"< B c B I 2.2.I C z z c z C C z C V I I I I C B z z C c z z z C U 2.1.I z x $ s ",
"< j C z C I 2.2.I V C C z z B x z z c C C z z z B c B z z C V I 2.2.I C z z $ s ",
"7 4 c c z C I 2.2.1.I V C C z z B z z z z c z c C z C V I I 2.2.2.V z z B z . X ",
"R > z c B z C I 2.2.2.2.I V z z z z B c z B C z z z V I 2.2.2.2.I z c c c d * S ",
"J.< 6 C C z z C 1.2.2.2.2.2.I z z z z z z z z z C I 2.2.2.2.2.I c z c C c , g /.",
"!.G = l C c c z V 1.2.2.2.2.2.I C C C B C z C V U 2.2.2.1.2.I C z z C C j @ ~ L.",
"I.b.< 4 z C C c C C I 1.2.2.2.2.I I I I I I I 2.2.2.2.2.1.I C z z C C j - k S.J.",
"J.!.R ; , j C c c c C V I I I 2.2.2.2.2.2.2.2.2.1.I I V V C z B C C h : 5 N.J.J.",
"J.J.Q.E * < j C c B B B z C C V I 2.2.2.2.2.I I C C c B z z C c C f = : ~ !.C.J.",
"J.J.I.E X.> 5 B C c c c c c z z C V I I I I C c B B x c c c C c l > 3 ..4.!.C.J.",
"Y.H.R >.k.1 : g C C C C c C V C z c c C C C c c c C V V C c C C 6 * i `.$.~ S.J.",
"I.c.0 h.<.; : : 4 f h h f f l C C C L c c C V V C h f f f h f 4 > = w g.=.k C.J.",
"Y.C.R m 0 > > : ; w 9 9 w 5 # 6 j h v p f f h g 4 - 9 0 9 9 0 = > > ; 0 M ~ C.J.",
"J.J.S.Z g v 4 : * 8 1 r O.#.` ; 0 w 9 9 0 9 / 9 9 +.#.' 0 2 0 # : 6 h f U F.F.J.",
"P.P.!.4.B C h 9 } +.[ w ` #.h.X.y +.#.} ' #.' y @.,.#._ r } +.[ < l C E b.J.J.J.",
"C.C.C.c.a x b 9 ' ,.f.+.( ` #.,.` ' #.X.+.#._ X.,.+.( ( %.g.&.[ 5 x x J J.J.J.J.",
"C.C.S.x.E.Z $ 8 ( ` <.f.` ( +.&.y e y t y y e { ;.' t +.g.>._ y e p ! J.J.J.J.G.",
"J.J.J.J.L.F  .i.#.y { >.O.3 y y w ` +.#.#.+.( 8 _ r 3 #.&.( ( *.i.] r.L.G.F.L.F.",
"J.J.J.J.L.y.].[.j.{ 2 u y 5 < ; ( &.>.>.>.>.#.r > 5 5 _ y 2 +.l.{.'.0.J.J.J.G.J.",
"J.J.J.J.J.{ :.:.) O # 5 g l h , u +.[ _ ` } } y , l j g < * + o.h.>.| J.J.J.J.J.",
"J.J.J.J.J.t.q.a.T.w.B N N x C h 9 y } *.%.' r 5 h C N N l H e.s.a.p.R.J.J.J.J.J.",
"J.J.J.J.J.G.L.J.J.J.J.W U L C V % y f.].].*.9 & V V I W z.G.J.G.G.G.G.J.J.J.J.J.",
"J.J.J.J.J.J.J.J.J.J.L.x.J.n.5.W b w *.l.j.@.q Z W v.n.S.V.G.J.J.F.G.J.J.J.J.J.J.",
"J.J.J.J.J.J.J.J.J.J.P.x.J.F.J.Y.6.v t #.+.0 B c.F.F.F.J.V.J.J.J.F.J.J.J.J.J.J.J.",
"J.J.J.J.J.J.J.J.J.J.U.Y.U.U.L.I.P.M.7.G G 7.J.U.L.U.L.U.J.J.J.J.J.J.J.J.J.J.J.J."
};
